<?xml version="1.0" encoding="UTF-8"?>
<svg xmlns="http://www.w3.org/2000/svg" style="display: none;">
    <symbol id="slash" viewBox="0 0 16 16">
        <path d="M13.442 2.558a.625.625 0 0 1 0 .884l-10 10a.625.625 0 1 1-.884-.884l10-10a.625.625 0 0 1 .884 0z"/>
    </symbol>
    <symbol id="paperclip" viewBox="0 0 16 16">
        <path d="M4.5 3a2.5 2.5 0 0 1 5 0v9a1.5 1.5 0 0 1-3 0V5a.5.5 0 0 1 1 0v7a.5.5 0 0 0 1 0V3a1.5 1.5 0 1 0-3 0v9a2.5 2.5 0 0 0 5 0V5a.5.5 0 0 1 1 0v7a3.5 3.5 0 1 1-7 0V3z"/>
    </symbol>
    <symbol id="clock" viewBox="0 0 16 16">
        <path d="M8 3.5a.5.5 0 0 0-1 0V9a.5.5 0 0 0 .252.434l3.5 2a.5.5 0 0 0 .496-.868L8 8.71V3.5z"/>
        <path d="M8 16A8 8 0 1 0 8 0a8 8 0 0 0 0 16zm7-8A7 7 0 1 1 1 8a7 7 0 0 1 14 0z"/>
    </symbol>
    <symbol id="map" viewBox="0 0 16 16">
        <path fill-rule="evenodd"
              d="M8 1a3 3 0 1 0 0 6 3 3 0 0 0 0-6zM4 4a4 4 0 1 1 4.5 3.969V13.5a.5.5 0 0 1-1 0V7.97A4 4 0 0 1 4 3.999zm2.493 8.574a.5.5 0 0 1-.411.575c-.712.118-1.28.295-1.655.493a1.319 1.319 0 0 0-.37.265.301.301 0 0 0-.057.09V14l.002.008a.147.147 0 0 0 .016.033.617.617 0 0 0 .145.15c.165.13.435.27.813.395.751.25 1.82.414 3.024.414s2.273-.163 3.024-.414c.378-.126.648-.265.813-.395a.619.619 0 0 0 .146-.15.148.148 0 0 0 .015-.033L12 14v-.004a.301.301 0 0 0-.057-.09 1.318 1.318 0 0 0-.37-.264c-.376-.198-.943-.375-1.655-.493a.5.5 0 1 1 .164-.986c.77.127 1.452.328 1.957.594C12.5 13 13 13.4 13 14c0 .426-.26.752-.544.977-.29.228-.68.413-1.116.558-.878.293-2.059.465-3.34.465-1.281 0-2.462-.172-3.34-.465-.436-.145-.826-.33-1.116-.558C3.26 14.752 3 14.426 3 14c0-.599.5-1 .961-1.243.505-.266 1.187-.467 1.957-.594a.5.5 0 0 1 .575.411z"/>
    </symbol>
    <symbol id="geo" viewBox="0 0 16 16">
        <path d="M12.166 8.94c-.524 1.062-1.234 2.12-1.96 3.07A31.493 31.493 0 0 1 8 14.58a31.481 31.481 0 0 1-2.206-2.57c-.726-.95-1.436-2.008-1.96-3.07C3.304 7.867 3 6.862 3 6a5 5 0 0 1 10 0c0 .862-.305 1.867-.834 2.94zM8 16s6-5.686 6-10A6 6 0 0 0 2 6c0 4.314 6 10 6 10z"/>
        <path d="M8 8a2 2 0 1 1 0-4 2 2 0 0 1 0 4zm0 1a3 3 0 1 0 0-6 3 3 0 0 0 0 6z"/>
    </symbol>
    <symbol id="hash" viewBox="0 0 16 16">
        <path d="M8.39 12.648a1.32 1.32 0 0 0-.015.18c0 .305.21.508.5.508.266 0 .492-.172.555-.477l.554-2.703h1.204c.421 0 .617-.234.617-.547 0-.312-.188-.53-.617-.53h-.985l.516-2.524h1.265c.43 0 .618-.227.618-.547 0-.313-.188-.524-.618-.524h-1.046l.476-2.304a1.06 1.06 0 0 0 .016-.164.51.51 0 0 0-.516-.516.54.54 0 0 0-.539.43l-.523 2.554H7.617l.477-2.304c.008-.04.015-.118.015-.164a.512.512 0 0 0-.523-.516.539.539 0 0 0-.531.43L6.53 5.484H5.414c-.43 0-.617.22-.617.532 0 .312.187.539.617.539h.906l-.515 2.523H4.609c-.421 0-.609.219-.609.531 0 .313.188.547.61.547h.976l-.516 2.492c-.008.04-.015.125-.015.18 0 .305.21.508.5.508.265 0 .492-.172.554-.477l.555-2.703h2.242l-.515 2.492zm-1-6.109h2.266l-.515 2.563H6.859l.532-2.563z"/>
    </symbol>
    <symbol id="pause" viewBox="0 0 16 16">
        <path d="M16 8A8 8 0 1 1 0 8a8 8 0 0 1 16 0zM6.25 5C5.56 5 5 5.56 5 6.25v3.5a1.25 1.25 0 1 0 2.5 0v-3.5C7.5 5.56 6.94 5 6.25 5zm3.5 0c-.69 0-1.25.56-1.25 1.25v3.5a1.25 1.25 0 1 0 2.5 0v-3.5C11 5.56 10.44 5 9.75 5z"/>
    </symbol>
    <symbol id="envelop" viewBox="0 0 16 16">
        <path d="M0 4a2 2 0 0 1 2-2h12a2 2 0 0 1 2 2v8a2 2 0 0 1-2 2H2a2 2 0 0 1-2-2V4zm2-1a1 1 0 0 0-1 1v.217l7 4.2 7-4.2V4a1 1 0 0 0-1-1H2zm13 2.383l-4.758 2.855L15 11.114v-5.73zm-.034 6.878L9.271 8.82 8 9.583 6.728 8.82l-5.694 3.44A1 1 0 0 0 2 13h12a1 1 0 0 0 .966-.739zM1 11.114l4.758-2.876L1 5.383v5.73z"/>
    </symbol>
    <symbol id="square" viewBox="0 0 16 16">
        <path d="M14 1a1 1 0 0 1 1 1v12a1 1 0 0 1-1 1H2a1 1 0 0 1-1-1V2a1 1 0 0 1 1-1h12zM2 0a2 2 0 0 0-2 2v12a2 2 0 0 0 2 2h12a2 2 0 0 0 2-2V2a2 2 0 0 0-2-2H2z"/>
    </symbol>
    <symbol id="check-square" viewBox="0 0 16 16">
        <path d="M2 0a2 2 0 0 0-2 2v12a2 2 0 0 0 2 2h12a2 2 0 0 0 2-2V2a2 2 0 0 0-2-2H2zm10.03 4.97a.75.75 0 0 1 .011 1.05l-3.992 4.99a.75.75 0 0 1-1.08.02L4.324 8.384a.75.75 0 1 1 1.06-1.06l2.094 2.093 3.473-4.425a.75.75 0 0 1 1.08-.022z"/>
    </symbol>
    <symbol id="person" viewBox="0 0 16 16">
        <path d="M8 8a3 3 0 1 0 0-6 3 3 0 0 0 0 6zm2-3a2 2 0 1 1-4 0 2 2 0 0 1 4 0zm4 8c0 1-1 1-1 1H3s-1 0-1-1 1-4 6-4 6 3 6 4zm-1-.004c-.001-.246-.154-.986-.832-1.664C11.516 10.68 10.289 10 8 10c-2.29 0-3.516.68-4.168 1.332-.678.678-.83 1.418-.832 1.664h10z"/>
    </symbol>
    <symbol id="people" viewBox="0 0 16 16">
        <path d="M15 14s1 0 1-1-1-4-5-4-5 3-5 4 1 1 1 1h8zm-7.978-1A.261.261 0 0 1 7 12.996c.001-.264.167-1.03.76-1.72C8.312 10.629 9.282 10 11 10c1.717 0 2.687.63 3.24 1.276.593.69.758 1.457.76 1.72l-.008.002a.274.274 0 0 1-.014.002H7.022zM11 7a2 2 0 1 0 0-4 2 2 0 0 0 0 4zm3-2a3 3 0 1 1-6 0 3 3 0 0 1 6 0zM6.936 9.28a5.88 5.88 0 0 0-1.23-.247A7.35 7.35 0 0 0 5 9c-4 0-5 3-5 4 0 .667.333 1 1 1h4.216A2.238 2.238 0 0 1 5 13c0-1.01.377-2.042 1.09-2.904.243-.294.526-.569.846-.816zM4.92 10A5.493 5.493 0 0 0 4 13H1c0-.26.164-1.03.76-1.724.545-.636 1.492-1.256 3.16-1.275zM1.5 5.5a3 3 0 1 1 6 0 3 3 0 0 1-6 0zm3-2a2 2 0 1 0 0 4 2 2 0 0 0 0-4z"/>
    </symbol>
    <symbol id="level" viewBox="0 0 16 16">
        <path d="M11 2a1 1 0 0 1 1-1h2a1 1 0 0 1 1 1v12h.5a.5.5 0 0 1 0 1H.5a.5.5 0 0 1 0-1H1v-3a1 1 0 0 1 1-1h2a1 1 0 0 1 1 1v3h1V7a1 1 0 0 1 1-1h2a1 1 0 0 1 1 1v7h1V2zm1 12h2V2h-2v12zm-3 0V7H7v7h2zm-5 0v-3H2v3h2z"/>
    </symbol>
    <symbol id="branch" viewBox="0 0 16 16">
        <path fill-rule="evenodd"
              d="M6 3.5A1.5 1.5 0 0 1 7.5 2h1A1.5 1.5 0 0 1 10 3.5v1A1.5 1.5 0 0 1 8.5 6v1H11a.5.5 0 0 1 .5.5v1a.5.5 0 0 1-1 0V8h-5v.5a.5.5 0 0 1-1 0v-1A.5.5 0 0 1 5 7h2.5V6A1.5 1.5 0 0 1 6 4.5v-1zM8.5 5a.5.5 0 0 0 .5-.5v-1a.5.5 0 0 0-.5-.5h-1a.5.5 0 0 0-.5.5v1a.5.5 0 0 0 .5.5h1zM3 11.5A1.5 1.5 0 0 1 4.5 10h1A1.5 1.5 0 0 1 7 11.5v1A1.5 1.5 0 0 1 5.5 14h-1A1.5 1.5 0 0 1 3 12.5v-1zm1.5-.5a.5.5 0 0 0-.5.5v1a.5.5 0 0 0 .5.5h1a.5.5 0 0 0 .5-.5v-1a.5.5 0 0 0-.5-.5h-1zm4.5.5a1.5 1.5 0 0 1 1.5-1.5h1a1.5 1.5 0 0 1 1.5 1.5v1a1.5 1.5 0 0 1-1.5 1.5h-1A1.5 1.5 0 0 1 9 12.5v-1zm1.5-.5a.5.5 0 0 0-.5.5v1a.5.5 0 0 0 .5.5h1a.5.5 0 0 0 .5-.5v-1a.5.5 0 0 0-.5-.5h-1z"/>
    </symbol>
    <symbol id="cert" viewBox="0 0 16 16">
        <path d="M10.854 7.854a.5.5 0 0 0-.708-.708L7.5 9.793 6.354 8.646a.5.5 0 1 0-.708.708l1.5 1.5a.5.5 0 0 0 .708 0l3-3z"/>
        <path d="M14 14V4.5L9.5 0H4a2 2 0 0 0-2 2v12a2 2 0 0 0 2 2h8a2 2 0 0 0 2-2zM9.5 3A1.5 1.5 0 0 0 11 4.5h2V14a1 1 0 0 1-1 1H4a1 1 0 0 1-1-1V2a1 1 0 0 1 1-1h5.5v2z"/>
    </symbol>
    <symbol id="tag" viewBox="0 0 16 16">
        <path d="M6 4.5a1.5 1.5 0 1 1-3 0 1.5 1.5 0 0 1 3 0zm-1 0a.5.5 0 1 0-1 0 .5.5 0 0 0 1 0z"/>
        <path d="M2 1h4.586a1 1 0 0 1 .707.293l7 7a1 1 0 0 1 0 1.414l-4.586 4.586a1 1 0 0 1-1.414 0l-7-7A1 1 0 0 1 1 6.586V2a1 1 0 0 1 1-1zm0 5.586l7 7L13.586 9l-7-7H2v4.586z"/>
    </symbol>
    <symbol id="cardlist" viewBox="0 0 16 16">
        <path d="M14.5 3a.5.5 0 0 1 .5.5v9a.5.5 0 0 1-.5.5h-13a.5.5 0 0 1-.5-.5v-9a.5.5 0 0 1 .5-.5h13zm-13-1A1.5 1.5 0 0 0 0 3.5v9A1.5 1.5 0 0 0 1.5 14h13a1.5 1.5 0 0 0 1.5-1.5v-9A1.5 1.5 0 0 0 14.5 2h-13z"/>
        <path d="M5 8a.5.5 0 0 1 .5-.5h7a.5.5 0 0 1 0 1h-7A.5.5 0 0 1 5 8zm0-2.5a.5.5 0 0 1 .5-.5h7a.5.5 0 0 1 0 1h-7a.5.5 0 0 1-.5-.5zm0 5a.5.5 0 0 1 .5-.5h7a.5.5 0 0 1 0 1h-7a.5.5 0 0 1-.5-.5zm-1-5a.5.5 0 1 1-1 0 .5.5 0 0 1 1 0zM4 8a.5.5 0 1 1-1 0 .5.5 0 0 1 1 0zm0 2.5a.5.5 0 1 1-1 0 .5.5 0 0 1 1 0z"/>
    </symbol>
    <symbol id="cardchk" viewBox="0 0 16 16">
        <path d="M14.5 3a.5.5 0 0 1 .5.5v9a.5.5 0 0 1-.5.5h-13a.5.5 0 0 1-.5-.5v-9a.5.5 0 0 1 .5-.5h13zm-13-1A1.5 1.5 0 0 0 0 3.5v9A1.5 1.5 0 0 0 1.5 14h13a1.5 1.5 0 0 0 1.5-1.5v-9A1.5 1.5 0 0 0 14.5 2h-13z"/>
        <path d="M7 5.5a.5.5 0 0 1 .5-.5h5a.5.5 0 0 1 0 1h-5a.5.5 0 0 1-.5-.5zm-1.496-.854a.5.5 0 0 1 0 .708l-1.5 1.5a.5.5 0 0 1-.708 0l-.5-.5a.5.5 0 1 1 .708-.708l.146.147 1.146-1.147a.5.5 0 0 1 .708 0zM7 9.5a.5.5 0 0 1 .5-.5h5a.5.5 0 0 1 0 1h-5a.5.5 0 0 1-.5-.5zm-1.496-.854a.5.5 0 0 1 0 .708l-1.5 1.5a.5.5 0 0 1-.708 0l-.5-.5a.5.5 0 0 1 .708-.708l.146.147 1.146-1.147a.5.5 0 0 1 .708 0z"/>
    </symbol>
    <symbol id="book" viewBox="0 0 16 16">
        <path d="M1 2.828c.885-.37 2.154-.769 3.388-.893 1.33-.134 2.458.063 3.112.752v9.746c-.935-.53-2.12-.603-3.213-.493-1.18.12-2.37.461-3.287.811V2.828zm7.5-.141c.654-.689 1.782-.886 3.112-.752 1.234.124 2.503.523 3.388.893v9.923c-.918-.35-2.107-.692-3.287-.81-1.094-.111-2.278-.039-3.213.492V2.687zM8 1.783C7.015.936 5.587.81 4.287.94c-1.514.153-3.042.672-3.994 1.105A.5.5 0 0 0 0 2.5v11a.5.5 0 0 0 .707.455c.882-.4 2.303-.881 3.68-1.02 1.409-.142 2.59.087 3.223.877a.5.5 0 0 0 .78 0c.633-.79 1.814-1.019 3.222-.877 1.378.139 2.8.62 3.681 1.02A.5.5 0 0 0 16 13.5v-11a.5.5 0 0 0-.293-.455c-.952-.433-2.48-.952-3.994-1.105C10.413.809 8.985.936 8 1.783z"/>
    </symbol>
    <symbol id="brush" viewBox="0 0 16 16">
        <path d="M15.825.12a.5.5 0 0 1 .132.584c-1.53 3.43-4.743 8.17-7.095 10.64a6.067 6.067 0 0 1-2.373 1.534c-.018.227-.06.538-.16.868-.201.659-.667 1.479-1.708 1.74a8.118 8.118 0 0 1-3.078.132 3.659 3.659 0 0 1-.562-.135 1.382 1.382 0 0 1-.466-.247.714.714 0 0 1-.204-.288.622.622 0 0 1 .004-.443c.095-.245.316-.38.461-.452.394-.197.625-.453.867-.826.095-.144.184-.297.287-.472l.117-.198c.151-.255.326-.54.546-.848.528-.739 1.201-.925 1.746-.896.126.007.243.025.348.048.062-.172.142-.38.238-.608.261-.619.658-1.419 1.187-2.069 2.176-2.67 6.18-6.206 9.117-8.104a.5.5 0 0 1 .596.04zM4.705 11.912a1.23 1.23 0 0 0-.419-.1c-.246-.013-.573.05-.879.479-.197.275-.355.532-.5.777l-.105.177c-.106.181-.213.362-.32.528a3.39 3.39 0 0 1-.76.861c.69.112 1.736.111 2.657-.12.559-.139.843-.569.993-1.06a3.122 3.122 0 0 0 .126-.75l-.793-.792zm1.44.026c.12-.04.277-.1.458-.183a5.068 5.068 0 0 0 1.535-1.1c1.9-1.996 4.412-5.57 6.052-8.631-2.59 1.927-5.566 4.66-7.302 6.792-.442.543-.795 1.243-1.042 1.826-.121.288-.214.54-.275.72v.001l.575.575zm-4.973 3.04.007-.005a.031.031 0 0 1-.007.004zm3.582-3.043.002.001h-.002z"/>
    </symbol>
    <symbol id="dimension" viewBox="0 0 16 16">
        <path d="M0 3.5A1.5 1.5 0 0 1 1.5 2h13A1.5 1.5 0 0 1 16 3.5v9a1.5 1.5 0 0 1-1.5 1.5h-13A1.5 1.5 0 0 1 0 12.5v-9zM1.5 3a.5.5 0 0 0-.5.5v9a.5.5 0 0 0 .5.5h13a.5.5 0 0 0 .5-.5v-9a.5.5 0 0 0-.5-.5h-13z"/>
        <path d="M2 4.5a.5.5 0 0 1 .5-.5h3a.5.5 0 0 1 0 1H3v2.5a.5.5 0 0 1-1 0v-3zm12 7a.5.5 0 0 1-.5.5h-3a.5.5 0 0 1 0-1H13V8.5a.5.5 0 0 1 1 0v3z"/>
    </symbol>
    <symbol id="quote" viewBox="0 0 16 16">
        <path d="M2.678 11.894a1 1 0 0 1 .287.801 10.97 10.97 0 0 1-.398 2c1.395-.323 2.247-.697 2.634-.893a1 1 0 0 1 .71-.074A8.06 8.06 0 0 0 8 14c3.996 0 7-2.807 7-6 0-3.192-3.004-6-7-6S1 4.808 1 8c0 1.468.617 2.83 1.678 3.894zm-.493 3.905a21.682 21.682 0 0 1-.713.129c-.2.032-.352-.176-.273-.362a9.68 9.68 0 0 0 .244-.637l.003-.01c.248-.72.45-1.548.524-2.319C.743 11.37 0 9.76 0 8c0-3.866 3.582-7 8-7s8 3.134 8 7-3.582 7-8 7a9.06 9.06 0 0 1-2.347-.306c-.52.263-1.639.742-3.468 1.105z"/>
        <path d="M7.066 6.76A1.665 1.665 0 0 0 4 7.668a1.667 1.667 0 0 0 2.561 1.406c-.131.389-.375.804-.777 1.22a.417.417 0 0 0 .6.58c1.486-1.54 1.293-3.214.682-4.112zm4 0A1.665 1.665 0 0 0 8 7.668a1.667 1.667 0 0 0 2.561 1.406c-.131.389-.375.804-.777 1.22a.417.417 0 0 0 .6.58c1.486-1.54 1.293-3.214.682-4.112z"/>
    </symbol>
</svg>
